<?xml version="1.0" encoding="iso-8859-1"?>
<!-- Generator: Adobe Illustrator 19.0.0, SVG Export Plug-In . SVG Version: 6.00 Build 0)  -->
<svg version="1.1" id="Capa_1" xmlns="http://www.w3.org/2000/svg" xmlns:xlink="http://www.w3.org/1999/xlink" x="0px" y="0px"
	 viewBox="0 0 489.7 489.7" style="enable-background:new 0 0 489.7 489.7;" xml:space="preserve">
<g>
	<g>
		<path d="M244.761,0c0,0-150.8,200.9-150.8,340.8c0,82.4,67.6,148.9,150.8,148.9s146.9-66.8,150.8-148.8
			C401.761,213,244.761,0,244.761,0z M228.861,454.4c-5.4,0-10.1-4.3-10.1-10.1c0-5.4,4.3-10.1,10.1-10.1
			c61.4,0,110-48.2,113.1-111.9c0.4-5.4,5.1-9.7,10.5-9.3s9.7,5.1,9.3,10.5C357.861,398,300.761,454.4,228.861,454.4z"/>
	</g>
</g>
<g>
</g>
<g>
</g>
<g>
</g>
<g>
</g>
<g>
</g>
<g>
</g>
<g>
</g>
<g>
</g>
<g>
</g>
<g>
</g>
<g>
</g>
<g>
</g>
<g>
</g>
<g>
</g>
<g>
</g>
</svg>
