<?xml version="1.0" encoding="iso-8859-1"?>
<!-- Generator: Adobe Illustrator 19.1.0, SVG Export Plug-In . SVG Version: 6.00 Build 0)  -->
<svg version="1.1" id="Capa_1" xmlns="http://www.w3.org/2000/svg" xmlns:xlink="http://www.w3.org/1999/xlink" x="0px" y="0px"
	 viewBox="0 0 477.159 477.159" style="enable-background:new 0 0 477.159 477.159;" xml:space="preserve">
<g>
	<path style="fill:#222222;" d="M441.314,74.44c0-5.091-2.118-10.151-5.719-13.75l-55-55c-3.598-3.591-8.635-5.688-13.719-5.688
		c-5.084,0-10.152,2.096-13.75,5.688L238.563,120.252L124.001,5.69c-3.667-3.664-8.848-5.764-14.031-5.688
		c-4.985,0.078-9.911,2.163-13.438,5.688l-55,55c-3.601,3.599-5.688,8.659-5.688,13.75s2.087,10.151,5.688,13.75l183.281,183.281
		c3.599,3.601,8.659,5.688,13.75,5.688s10.151-2.087,13.75-5.688L435.594,88.19C439.195,84.59,441.314,79.531,441.314,74.44
		L441.314,74.44z M441.314,274.44c0-5.091-2.118-10.151-5.719-13.75l-55-55c-3.598-3.591-8.635-5.688-13.719-5.688
		c-5.084,0-10.152,2.096-13.75,5.688L238.563,320.252L124.001,205.69c-3.667-3.664-8.848-5.764-14.031-5.688
		c-4.985,0.078-9.911,2.163-13.438,5.688l-55,55c-3.601,3.599-5.688,8.659-5.688,13.75s2.087,10.151,5.688,13.75l183.281,183.281
		c3.599,3.601,8.659,5.688,13.75,5.688s10.151-2.087,13.75-5.688L435.594,288.19C439.195,284.59,441.314,279.531,441.314,274.44
		L441.314,274.44z"/>
</g>
<g>
</g>
<g>
</g>
<g>
</g>
<g>
</g>
<g>
</g>
<g>
</g>
<g>
</g>
<g>
</g>
<g>
</g>
<g>
</g>
<g>
</g>
<g>
</g>
<g>
</g>
<g>
</g>
<g>
</g>
</svg>
