<?xml version="1.0" encoding="iso-8859-1"?>
<!-- Generator: Adobe Illustrator 19.1.0, SVG Export Plug-In . SVG Version: 6.00 Build 0)  -->
<svg version="1.1" id="Capa_1" xmlns="http://www.w3.org/2000/svg" xmlns:xlink="http://www.w3.org/1999/xlink" x="0px" y="0px"
	 viewBox="0 0 477.159 477.159" style="enable-background:new 0 0 477.159 477.159;" xml:space="preserve">
<g>
	<path style="fill:#222222;" d="M35.845,402.719c0,5.091,2.118,10.151,5.719,13.75l55,55c3.598,3.591,8.635,5.688,13.719,5.688
		s10.152-2.096,13.75-5.688l114.562-114.562l114.562,114.562c3.667,3.664,8.848,5.764,14.031,5.688
		c4.985-0.078,9.911-2.163,13.438-5.688l55-55c3.601-3.599,5.688-8.659,5.688-13.75s-2.087-10.151-5.688-13.75L252.345,205.688
		c-3.599-3.601-8.659-5.688-13.75-5.688s-10.151,2.087-13.75,5.688L41.563,388.969C37.963,392.568,35.845,397.628,35.845,402.719
		L35.845,402.719z M35.845,202.719c0,5.091,2.118,10.151,5.719,13.75l55,55c3.598,3.591,8.635,5.688,13.719,5.688
		s10.152-2.096,13.75-5.688l114.562-114.562l114.562,114.562c3.667,3.664,8.848,5.764,14.031,5.688
		c4.985-0.078,9.911-2.163,13.438-5.688l55-55c3.601-3.599,5.688-8.659,5.688-13.75s-2.087-10.151-5.688-13.75L252.345,5.688
		C248.746,2.087,243.686,0,238.595,0s-10.151,2.087-13.75,5.688L41.563,188.969C37.963,192.568,35.845,197.628,35.845,202.719z"/>
</g>
<g>
</g>
<g>
</g>
<g>
</g>
<g>
</g>
<g>
</g>
<g>
</g>
<g>
</g>
<g>
</g>
<g>
</g>
<g>
</g>
<g>
</g>
<g>
</g>
<g>
</g>
<g>
</g>
<g>
</g>
</svg>
