<?xml version="1.0" encoding="iso-8859-1"?>
<!-- Generator: Adobe Illustrator 16.0.0, SVG Export Plug-In . SVG Version: 6.00 Build 0)  -->
<!DOCTYPE svg PUBLIC "-//W3C//DTD SVG 1.1//EN" "http://www.w3.org/Graphics/SVG/1.1/DTD/svg11.dtd">
<svg version="1.1" id="Capa_1" xmlns="http://www.w3.org/2000/svg" xmlns:xlink="http://www.w3.org/1999/xlink" x="0px" y="0px"
	 width="45.341px" height="45.341px" viewBox="0 0 45.341 45.341" style="enable-background:new 0 0 45.341 45.341;"
	 xml:space="preserve">
<g>
	<g>
		<path d="M42.754,6.152L23.416,0.113c-0.484-0.151-1.006-0.151-1.49,0L2.587,6.152C1.543,6.479,0.832,7.444,0.832,8.539
			c0,26.74,13.511,33.129,20.77,36.563c0.339,0.159,0.704,0.239,1.069,0.239c0.365,0,0.73-0.08,1.069-0.239
			c7.258-3.435,20.769-9.825,20.769-36.563C44.509,7.444,43.798,6.479,42.754,6.152z M22.671,40.073
			c-6.892-3.312-16.299-8.796-16.816-29.703L22.671,5.12l16.815,5.251C38.969,31.276,29.562,36.761,22.671,40.073z"/>
		<path d="M26.109,17.446l-2.119,2.12l5.261,5.26c0.231,0.23,0.358,0.539,0.358,0.867s-0.127,0.635-0.358,0.867l-0.903,0.902
			c-0.464,0.463-1.271,0.462-1.734,0l-0.515-0.515l-2.118,2.119l0.516,0.515c0.798,0.798,1.857,1.237,2.984,1.237
			c1.129,0,2.188-0.439,2.986-1.237l0.902-0.903c0.799-0.798,1.236-1.857,1.236-2.985s-0.438-2.188-1.236-2.986L26.109,17.446z"/>
		<path d="M23.984,22.206l-5.256,5.257c-0.464,0.463-1.27,0.462-1.733,0l-0.903-0.902c-0.231-0.231-0.358-0.539-0.358-0.867
			s0.127-0.635,0.358-0.867l0.494-0.494l-2.119-2.119l-0.494,0.494c-0.798,0.798-1.236,1.858-1.236,2.986s0.438,2.188,1.236,2.985
			l0.903,0.903c0.798,0.798,1.857,1.237,2.986,1.237c1.128,0,2.188-0.439,2.985-1.237l5.259-5.257L23.984,22.206z"/>
		<path d="M19.216,24.304l2.119-2.119l-5.244-5.243c-0.231-0.231-0.358-0.539-0.358-0.867c0-0.328,0.127-0.635,0.358-0.867
			l0.904-0.903c0.231-0.231,0.539-0.359,0.866-0.359s0.636,0.127,0.867,0.359l0.498,0.498l2.119-2.119l-0.498-0.498
			c-0.798-0.798-1.858-1.237-2.986-1.237s-2.188,0.439-2.985,1.237l-0.903,0.903c-0.798,0.798-1.237,1.858-1.237,2.986
			c0,1.128,0.439,2.188,1.237,2.986L19.216,24.304z"/>
		<path d="M21.348,19.568l5.266-5.264c0.23-0.231,0.539-0.359,0.865-0.359c0.328,0,0.637,0.127,0.867,0.359l0.903,0.903
			c0.231,0.231,0.358,0.539,0.358,0.867c0,0.328-0.127,0.635-0.358,0.867l-0.501,0.501l2.119,2.119l0.5-0.501
			c0.799-0.798,1.238-1.858,1.238-2.986c0-1.128-0.439-2.188-1.238-2.986l-0.902-0.903c-0.798-0.798-1.857-1.237-2.986-1.237
			c-1.127,0-2.188,0.439-2.984,1.237l-5.265,5.264L21.348,19.568z"/>
	</g>
</g>
<g>
</g>
<g>
</g>
<g>
</g>
<g>
</g>
<g>
</g>
<g>
</g>
<g>
</g>
<g>
</g>
<g>
</g>
<g>
</g>
<g>
</g>
<g>
</g>
<g>
</g>
<g>
</g>
<g>
</g>
</svg>
