<?xml version='1.0' encoding='iso-8859-1'?>
<!DOCTYPE svg PUBLIC '-//W3C//DTD SVG 1.1//EN' 'http://www.w3.org/Graphics/SVG/1.1/DTD/svg11.dtd'>
<svg version="1.1" xmlns="http://www.w3.org/2000/svg" viewBox="0 0 300.223 300.223" xmlns:xlink="http://www.w3.org/1999/xlink" enable-background="new 0 0 300.223 300.223">
  <g>
    <g>
      <path d="m294.035,71.426c-0.434-0.721-1.23-1.144-2.07-1.097-0.841,0.047-1.585,0.556-1.935,1.322l-.052,.107c-3.311,6.792-8.905,12.316-15.934,15.091-11.063,4.368-23.339,1.709-31.571-6.299l48.31-48.31c1.327-1.326 2.248-3.003 2.656-4.834l3.67-16.461c0.169-0.758-0.061-1.549-0.61-2.097-0.549-0.549-1.34-0.779-2.097-0.61l-16.461,3.669c-1.831,0.408-3.508,1.33-4.835,2.656l-48.309,48.31c-6.655-6.841-9.624-16.471-7.929-25.881 1.718-9.545 8.004-17.642 16.825-21.673 0.001-0.001 0.003-0.001 0.004-0.002 0.765-0.35 1.273-1.095 1.32-1.935 0.047-0.84-0.374-1.637-1.095-2.071-20.675-12.448-52.366-5.815-75.385,17.204-19.278,19.278-27.054,44.633-21.764,64.511l10.645,6.882c4.413-6.82 11.481-11.591 19.599-13.053 9.407-1.694 19.038,1.267 25.878,7.92l-30.022,30 17.714,17.663 29.986-29.986c6.656,6.841 9.624,16.471 7.93,25.881-1.464,8.13-7.361,16.706-15.43,21.681-1.839,1.134-1.833,3.804 0.014,4.924l.001,.001c20.683,11.159 51.324,4.291 73.745-18.129 23.017-23.019 29.65-54.709 17.202-75.384z"/>
      <path d="m159.086,121l.01,.01c-0.002-0.041-0.005-0.053-0.01-0.01z"/>
      <path d="m117.109,162.446l-.01-.01c-0.051,0.007-0.041,0.01 0.01,0.01z"/>
      <path d="m121.167,166.481l-17.319,17.338c-7.853-1.888-16.469,0.206-22.599,6.336l-9.865,9.865 33.941,33.941 9.865-9.865c6.13-6.13 8.223-14.746 6.335-22.599l17.378-17.378-17.736-17.638z"/>
    </g>
    <path d="m15.665,255.74c-9.372,9.373-9.372,24.568 0,33.941 4.686,4.687 10.828,7.029 16.971,7.029 6.143,0 12.284-2.343 16.971-7.029l45.112-45.112-33.941-33.941-45.113,45.112z"/>
    <g>
      <path d="m288.864,273.453l-143.633-143.634c0.002-0.003 0.005-0.005 0.009-0.009 3.824-3.805 3.172-10.169-1.361-13.093l-32.577-21.014-3.022-52.628c-0.119-2.065-1.464-3.857-3.413-4.548l-4.637-1.642h-0.001l-50.869-18.015-42.531-15.063c-2.196-0.778-4.705,0.008-6.042,2.069-0.891,1.374-1.001,3.117-0.454,4.66l16.554,46.741 16.464,46.485v0.001l1.642,4.637c0.69,1.95 2.483,3.295 4.548,3.413l4.911,.282 47.491,2.727 21.281,32.585c2.763,4.231 8.607,5.099 12.484,1.858 0.295-0.246 0.494-0.419 0.576-0.501l143.634,143.634c2.616,2.615 6.044,3.924 9.473,3.924 3.429,0 6.857-1.308 9.473-3.924 5.232-5.232 5.232-13.713-5.68434e-14-18.945zm-206.524-177.101l-32.37-32.371c-2.893-2.894-2.893-7.583 0-10.477 2.894-2.892 7.583-2.892 10.477,0l32.371,32.371 .638,11.115-11.116-.638z"/>
    </g>
  </g>
</svg>
